<?xml version="1.0" encoding="UTF-8" standalone="no"?><!DOCTYPE svg PUBLIC "-//W3C//DTD SVG 1.1//EN" "http://www.w3.org/Graphics/SVG/1.1/DTD/svg11.dtd"><svg width="100%" height="100%" viewBox="0 0 4167 4167" version="1.1" xmlns="http://www.w3.org/2000/svg" xmlns:xlink="http://www.w3.org/1999/xlink" xml:space="preserve" xmlns:serif="http://www.serif.com/" style="fill-rule:evenodd;clip-rule:evenodd;stroke-linecap:round;stroke-linejoin:round;stroke-miterlimit:1.5;"><ellipse cx="2081" cy="2518.3" rx="1965.32" ry="557.209" style="fill:#fff;stroke:#000;stroke-width:120.83px;"/><clipPath id="_clip1"><polygon points="2540.41,481.594 4102.2,895.708 3550.58,2976.06 1988.8,2561.94 2540.41,481.594 "/></clipPath><g clip-path="url(#_clip1)"><g><path d="M3223.18,2588.45c-122.156,78.687 -257.015,142.409 -400.704,184.763c-18.2,7.133 -39.214,3.011 -53.27,-12.313c-152.004,-164.79 -268.524,-345.178 -348.968,-529.046c-111.195,-253.088 -154.581,-512.477 -131.307,-745.13c23.405,-235.88 115.332,-444.531 274.827,-591.597c62.896,-58.159 136.49,-106.777 220.154,-143.484c192.336,-84.36 391.387,-103.155 571.84,-53.858c173.68,47.502 328.326,157.907 440.844,332.885c39.575,61.23 69.014,127.202 89.283,195.635c68.168,231.531 26.815,492.732 -94.668,736.31c-119.998,240.71 -318.951,464.834 -567.896,625.328l-0.135,0.507Zm-8.625,-1497.57c214.671,56.921 342.394,277.063 285.518,491.565c-56.921,214.672 -277.063,342.395 -491.565,285.519c-214.672,-56.922 -342.44,-276.894 -285.519,-491.566c56.752,-214.716 276.894,-342.439 491.566,-285.518Z"/></g></g><clipPath id="_clip2"><polygon points="87.984,1316.38 1968.22,519.771 2764.83,2400.01 884.595,3196.62 87.984,1316.38 "/></clipPath><g clip-path="url(#_clip2)"><g><path d="M2156.48,2290.65c-79.488,130.595 -175.931,234.804 -291.733,308.232c-66.772,42.186 -138.976,73.68 -217.155,93.628l48.686,114.913c16.101,37.577 -10.151,64.22 -54.028,52.67c-16.632,-4.324 -37.864,-14.821 -54.267,-21.588l-348.166,-143.604c-41.374,-20.552 -47.55,-57.28 -22.376,-108.193l141.377,-352.998c16.592,-49.443 65.206,-64.625 89.984,-14.662l52.874,120.539c61.174,-7.689 115.348,-27.213 162.978,-57.499c65.306,-41.385 122.061,-104.234 171.648,-185.704l320.178,194.266Zm106.688,-654.683l112.466,-47.649c37.576,-16.101 64.22,10.151 52.669,54.028c-4.323,16.631 -14.82,37.863 -21.587,54.266l-143.605,348.167c-20.552,41.374 -57.28,47.55 -108.192,22.376l-353.063,-141.53c-49.443,-16.592 -64.625,-65.207 -14.662,-89.984l123.228,-54.195c-7.912,-59.996 -27.353,-113.123 -57.162,-160.052c-41.385,-65.306 -104.299,-122.213 -185.704,-171.647l194.308,-319.655c130.595,79.488 234.804,175.931 308.231,291.733c42.016,65.942 73.121,137.228 93.073,214.142Zm-1057.95,-612.092l-48.686,-114.913c-16.101,-37.577 10.215,-64.067 54.028,-52.67c16.631,4.324 37.863,14.821 54.266,21.588l348.166,143.604c41.375,20.552 47.551,57.28 22.377,108.193l-141.531,353.063c-16.592,49.443 -65.206,64.625 -89.984,14.662l-53.133,-121.151c-58.972,8.2 -111.487,27.381 -157.716,56.713c-65.306,41.386 -122.213,104.299 -171.647,185.704l-319.961,-194.178c79.488,-130.595 175.931,-234.804 291.733,-308.231c65.459,-41.45 135.851,-72.537 212.088,-92.384Zm-209.423,1561.09c-130.595,-79.488 -234.804,-175.931 -308.231,-291.733c-41.928,-66.159 -73.097,-137.599 -93.027,-214.883l-117.361,49.723c-37.577,16.101 -64.221,-10.151 -52.67,-54.028c4.324,-16.632 14.82,-37.863 21.587,-54.266l143.605,-348.167c20.552,-41.374 57.28,-47.55 108.193,-22.376l352.998,141.377c49.442,16.592 64.625,65.206 14.662,89.984l-118.397,51.967c7.824,60.214 27.394,113.647 57.115,160.794c41.386,65.306 104.299,122.214 185.704,171.648l-194.178,319.96Z" style="fill:#007227;fill-rule:nonzero;"/></g></g></svg>